<?xml version="1.0" standalone="no"?>
<!DOCTYPE svg PUBLIC "-//W3C//DTD SVG 20010904//EN"
 "http://www.w3.org/TR/2001/REC-SVG-20010904/DTD/svg10.dtd">
<svg version="1.0" xmlns="http://www.w3.org/2000/svg"
 width="512.000000pt" height="512.000000pt" viewBox="0 0 512.000000 512.000000"
 preserveAspectRatio="xMidYMid meet">

<g transform="translate(0.000000,512.000000) scale(0.100000,-0.100000)"
fill="#000000" stroke="none">
<path d="M2375 5054 c-16 -2 -73 -9 -125 -15 -435 -49 -869 -231 -1240 -518
-110 -85 -327 -302 -412 -412 -277 -358 -445 -751 -515 -1206 -23 -150 -23
-536 0 -686 112 -727 493 -1334 1087 -1732 330 -221 669 -348 1085 -407 135
-19 503 -16 650 5 373 55 731 192 1035 395 617 413 996 1025 1102 1777 17 119
16 493 -1 615 -88 635 -394 1199 -866 1597 -357 302 -802 502 -1265 568 -108
16 -467 29 -535 19z m360 -1213 c278 -62 489 -175 670 -356 178 -178 294 -404
342 -665 26 -142 23 -403 -5 -537 -113 -529 -468 -882 -1010 -1005 -93 -21
-121 -22 -739 -25 l-643 -4 0 1311 0 1311 643 -4 c622 -3 645 -4 742 -26z"/>
<path d="M2080 2560 l0 -652 218 5 c238 4 285 13 402 70 94 46 206 160 253
257 54 111 71 186 70 320 0 132 -18 221 -64 313 -43 87 -95 152 -164 204 -73
55 -110 74 -200 103 -62 20 -96 24 -292 28 l-223 4 0 -652z"/>
</g>
</svg>
